<svg width="128" height="37" viewBox="0 0 128 37" fill="none" xmlns="http://www.w3.org/2000/svg">
<g filter="url(#filter0_d_8_36)">
<path d="M8.28207 22.4173C8.28207 24.3717 6.70254 25.9512 4.74821 25.9512C2.79388 25.9512 1.21436 24.3717 1.21436 22.4173C1.21436 20.463 2.79388 18.8835 4.74821 18.8835H8.28207V22.4173ZM10.049 22.4173C10.049 20.463 11.6285 18.8835 13.5829 18.8835C15.5372 18.8835 17.1167 20.463 17.1167 22.4173V31.252C17.1167 33.2063 15.5372 34.7858 13.5829 34.7858C11.6285 34.7858 10.049 33.2063 10.049 31.252V22.4173Z" stroke="black" stroke-width="1.5" shape-rendering="crispEdges"/>
</g>
<g filter="url(#filter1_d_8_36)">
<path d="M13.5828 8.22836C11.6284 8.22836 10.0489 6.64883 10.0489 4.6945C10.0489 2.74017 11.6284 1.16064 13.5828 1.16064C15.5371 1.16064 17.1166 2.74017 17.1166 4.6945V8.22836H13.5828ZM13.5828 10.0221C15.5371 10.0221 17.1166 11.6016 17.1166 13.5559C17.1166 15.5103 15.5371 17.0898 13.5828 17.0898H4.72136C2.76703 17.0898 1.1875 15.5103 1.1875 13.5559C1.1875 11.6016 2.76703 10.0221 4.72136 10.0221H13.5828Z" stroke="black" stroke-width="1.5" shape-rendering="crispEdges"/>
</g>
<g filter="url(#filter2_d_8_36)">
<path d="M27.745 13.5559C27.745 11.6016 29.3246 10.0221 31.2789 10.0221C33.2332 10.0221 34.8128 11.6016 34.8128 13.5559C34.8128 15.5103 33.2332 17.0898 31.2789 17.0898H27.745V13.5559ZM25.9781 13.5559C25.9781 15.5103 24.3986 17.0898 22.4443 17.0898C20.4899 17.0898 18.9104 15.5103 18.9104 13.5559V4.6945C18.9104 2.74017 20.4899 1.16064 22.4443 1.16064C24.3986 1.16064 25.9781 2.74017 25.9781 4.6945V13.5559Z" stroke="black" stroke-width="1.5" shape-rendering="crispEdges"/>
</g>
<g filter="url(#filter3_d_8_36)">
<path d="M22.4443 27.7181C24.3986 27.7181 25.9781 29.2977 25.9781 31.252C25.9781 33.2063 24.3986 34.7858 22.4443 34.7858C20.4899 34.7858 18.9104 33.2063 18.9104 31.252V27.7181H22.4443ZM22.4443 25.9512C20.4899 25.9512 18.9104 24.3717 18.9104 22.4173C18.9104 20.463 20.4899 18.8835 22.4443 18.8835H31.3057C33.26 18.8835 34.8395 20.463 34.8395 22.4173C34.8395 24.3717 33.26 25.9512 31.3057 25.9512H22.4443Z" stroke="black" stroke-width="1.5" shape-rendering="crispEdges"/>
</g>
<g filter="url(#filter4_dd_8_36)">
<mask id="path-5-outside-1_8_36" maskUnits="userSpaceOnUse" x="43" y="8" width="84" height="19" fill="black">
<rect fill="white" x="43" y="8" width="84" height="19"/>
<path d="M53.658 24.252H55.692C63.036 24.252 64.458 21.966 64.458 19.644V19.392C64.458 16.674 62.55 15.432 57.384 15.306L54.828 15.252C52.56 15.198 52.092 14.856 52.092 14.334V14.316C52.092 13.83 52.38 13.47 54.468 13.47H54.558C56.826 13.47 57.096 14.244 57.132 14.712H63.972V14.586C63.972 12.372 62.37 10.374 55.422 10.374H53.442C47.088 10.374 45.306 12.084 45.306 14.442V14.604C45.306 16.71 46.566 18.6 51.93 18.762L54.594 18.834C57.132 18.906 57.384 19.374 57.384 19.914V19.95C57.384 20.508 56.952 21.03 54.792 21.03H54.72C52.362 21.03 52.074 20.022 52.038 19.392H45.09V19.554C45.09 21.282 45.864 24.252 53.658 24.252ZM72.0688 10.608H66.2548V24H72.0688V10.608ZM82.9914 20.004C82.9914 20.868 82.1634 21.678 80.7414 21.678C79.7514 21.678 79.4634 21.192 79.4634 20.796V20.778C79.4634 20.346 79.7694 20.166 80.3994 20.022L82.9914 19.464V20.004ZM83.0634 22.74C83.1894 23.514 83.7294 24 84.6654 24H89.6154V20.976H89.0574C88.8234 20.976 88.7334 20.85 88.7334 20.616V17.196C88.7334 15.972 88.3014 14.064 81.7674 14.064H80.7414C74.5134 14.064 74.0814 15.972 74.0814 17.304V17.466H79.4814C79.5174 17.196 79.5714 16.584 81.2634 16.584H81.3174C82.7754 16.584 83.0094 16.926 83.0094 17.25V17.268C83.0094 17.484 82.9014 17.646 82.5234 17.682L77.6094 18.096C74.7474 18.348 73.8474 19.356 73.8474 20.814V21.12C73.8474 22.65 75.0714 24.18 78.3114 24.18H78.4554C81.2274 24.18 82.5774 23.208 83.0634 22.74ZM99.6196 24.27C106.676 24.27 107.09 20.976 107.09 19.716V19.662H101.168C101.15 20.004 100.862 21.354 99.0256 21.354H98.9536C97.1716 21.354 96.8116 20.112 96.8116 19.05V18.996C96.8116 18.024 97.1716 16.908 98.9536 16.908H99.0256C100.88 16.908 101.132 18.168 101.168 18.51H107.09V18.456C107.09 17.106 106.514 14.046 99.6376 14.046H98.4316C91.4656 14.046 90.9076 17.124 90.9076 18.96V19.248C90.9076 21.12 91.4836 24.27 98.4496 24.27H99.6196ZM114.684 24V19.752L117.636 24H124.098L120.246 18.492L123.504 14.316H117.348L114.684 17.97V10.608H108.87V24H114.684Z"/>
</mask>
<path d="M57.384 15.306L57.4328 13.3066L57.4262 13.3064L57.384 15.306ZM54.828 15.252L54.7804 17.2514L54.7858 17.2516L54.828 15.252ZM57.132 14.712L55.1379 14.8654C55.218 15.9074 56.0869 16.712 57.132 16.712V14.712ZM63.972 14.712V16.712C65.0766 16.712 65.972 15.8166 65.972 14.712H63.972ZM51.93 18.762L51.8696 20.7611L51.876 20.7613L51.93 18.762ZM54.594 18.834L54.6507 16.8348L54.648 16.8347L54.594 18.834ZM52.038 19.392L54.0347 19.2779C53.9743 18.2194 53.0982 17.392 52.038 17.392V19.392ZM45.09 19.392V17.392C43.9854 17.392 43.09 18.2874 43.09 19.392H45.09ZM53.658 26.252H55.692V22.252H53.658V26.252ZM55.692 26.252C59.4912 26.252 62.1753 25.676 63.9499 24.4752C65.91 23.1488 66.458 21.2845 66.458 19.644H62.458C62.458 20.3255 62.295 20.7652 61.7081 21.1623C60.9357 21.685 59.2368 22.252 55.692 22.252V26.252ZM66.458 19.644V19.392H62.458V19.644H66.458ZM66.458 19.392C66.458 18.4817 66.2981 17.5592 65.8547 16.704C65.403 15.833 64.722 15.1572 63.8786 14.6569C62.2893 13.7141 60.0781 13.3711 57.4328 13.3066L57.3352 17.3054C59.8559 17.3669 61.1817 17.7079 61.8379 18.0971C62.1173 18.2628 62.2361 18.415 62.3037 18.5453C62.3794 18.6913 62.458 18.9433 62.458 19.392H66.458ZM57.4262 13.3064L54.8702 13.2524L54.7858 17.2516L57.3418 17.3056L57.4262 13.3064ZM54.8756 13.2526C54.3512 13.2401 53.9731 13.2117 53.705 13.1763C53.4259 13.1396 53.3317 13.1034 53.3415 13.1073C53.3542 13.1123 53.5876 13.2046 53.8036 13.4941C54.0426 13.8145 54.092 14.1472 54.092 14.334H50.092C50.092 14.7818 50.1999 15.353 50.5975 15.886C50.9722 16.3882 51.4643 16.6672 51.8775 16.8297C52.635 17.1276 53.632 17.2241 54.7804 17.2514L54.8756 13.2526ZM54.092 14.334V14.316H50.092V14.334H54.092ZM54.092 14.316C54.092 14.3807 54.0849 14.6651 53.8967 14.9874C53.698 15.3276 53.4334 15.4822 53.3218 15.5327C53.237 15.5711 53.2522 15.5457 53.4717 15.5174C53.6782 15.4908 53.9958 15.47 54.468 15.47V11.47C53.4142 11.47 52.4327 11.5445 51.6722 11.8888C51.2276 12.09 50.7605 12.4258 50.4426 12.9702C50.1351 13.4967 50.092 14.0083 50.092 14.316H54.092ZM54.468 15.47H54.558V11.47H54.468V15.47ZM54.558 15.47C55.0184 15.47 55.3022 15.51 55.4606 15.5467C55.6178 15.5831 55.6088 15.6063 55.5254 15.5471C55.4263 15.4769 55.3096 15.3523 55.2274 15.1795C55.1528 15.0225 55.1402 14.8959 55.1379 14.8654L59.1261 14.5586C59.0799 13.9577 58.8377 12.9921 57.8386 12.2839C56.9843 11.6783 55.8522 11.47 54.558 11.47V15.47ZM57.132 16.712H63.972V12.712H57.132V16.712ZM65.972 14.712V14.586H61.972V14.712H65.972ZM65.972 14.586C65.972 13.7909 65.8274 12.9187 65.3884 12.0727C64.944 11.2162 64.2566 10.5006 63.3461 9.94363C61.6007 8.87597 59.011 8.374 55.422 8.374V12.374C58.781 12.374 60.4663 12.871 61.2589 13.3559C61.6174 13.5752 61.7648 13.7741 61.8379 13.915C61.9164 14.0663 61.972 14.2741 61.972 14.586H65.972ZM55.422 8.374H53.442V12.374H55.422V8.374ZM53.442 8.374C50.1646 8.374 47.6923 8.8007 45.9845 9.79562C45.0905 10.3164 44.3883 11.0036 43.925 11.8593C43.4664 12.7063 43.306 13.5993 43.306 14.442H47.306C47.306 14.1057 47.3684 13.9007 47.4425 13.7639C47.5118 13.6358 47.6523 13.4533 47.998 13.2519C48.7697 12.8023 50.3654 12.374 53.442 12.374V8.374ZM43.306 14.442V14.604H47.306V14.442H43.306ZM43.306 14.604C43.306 16.1 43.7839 17.7674 45.3892 18.9989C46.8656 20.1314 49.0249 20.6752 51.8696 20.7611L51.9904 16.7629C49.4711 16.6868 48.3184 16.2046 47.8238 15.8251C47.4581 15.5446 47.306 15.214 47.306 14.604H43.306ZM51.876 20.7613L54.54 20.8333L54.648 16.8347L51.984 16.7627L51.876 20.7613ZM54.5373 20.8332C55.1192 20.8497 55.5149 20.8878 55.7768 20.9308C56.0516 20.9759 56.098 21.0137 56.0337 20.981C55.9377 20.9322 55.7017 20.7774 55.5329 20.4548C55.3797 20.1621 55.384 19.9182 55.384 19.914H59.384C59.384 19.6398 59.3568 19.1349 59.077 18.6003C58.7817 18.0358 58.324 17.6583 57.8478 17.416C57.0331 17.0014 55.9327 16.8712 54.6507 16.8348L54.5373 20.8332ZM55.384 19.914V19.95H59.384V19.914H55.384ZM55.384 19.95C55.384 19.8269 55.4099 19.5956 55.5548 19.3471C55.7014 19.0956 55.8843 18.973 55.9617 18.9319C56.0214 18.9003 55.9883 18.9319 55.7779 18.9672C55.574 19.0013 55.2581 19.03 54.792 19.03V23.03C55.952 23.03 57.0089 22.9038 57.8343 22.4666C58.2897 22.2253 58.7156 21.8675 59.0107 21.3612C59.3041 20.8579 59.384 20.3521 59.384 19.95H55.384ZM54.792 19.03H54.72V23.03H54.792V19.03ZM54.72 19.03C53.7757 19.03 53.6893 18.8209 53.8387 18.9539C53.9186 19.0251 53.9792 19.1209 54.0125 19.2093C54.0399 19.2821 54.0371 19.3195 54.0347 19.2779L50.0413 19.5061C50.0731 20.0635 50.2374 21.1027 51.1778 21.9406C52.0697 22.7351 53.3063 23.03 54.72 23.03V19.03ZM52.038 17.392H45.09V21.392H52.038V17.392ZM43.09 19.392V19.554H47.09V19.392H43.09ZM43.09 19.554C43.09 20.7439 43.3756 22.6139 45.1823 24.0969C46.8765 25.4875 49.5778 26.252 53.658 26.252V22.252C49.9442 22.252 48.3615 21.5315 47.7202 21.0051C47.1914 20.571 47.09 20.0921 47.09 19.554H43.09ZM72.0688 10.608H74.0688C74.0688 9.50343 73.1733 8.608 72.0688 8.608V10.608ZM66.2548 10.608V8.608C65.1502 8.608 64.2548 9.50343 64.2548 10.608H66.2548ZM66.2548 24H64.2548C64.2548 25.1046 65.1502 26 66.2548 26V24ZM72.0688 24V26C73.1733 26 74.0688 25.1046 74.0688 24H72.0688ZM72.0688 8.608H66.2548V12.608H72.0688V8.608ZM64.2548 10.608V24H68.2548V10.608H64.2548ZM66.2548 26H72.0688V22H66.2548V26ZM74.0688 24V10.608H70.0688V24H74.0688ZM80.3994 20.022L79.9785 18.0668C79.9702 18.0686 79.962 18.0704 79.9537 18.0723L80.3994 20.022ZM82.9914 19.464H84.9914C84.9914 18.8597 84.7181 18.2878 84.248 17.9081C83.7779 17.5284 83.1613 17.3816 82.5705 17.5088L82.9914 19.464ZM83.0634 22.74L85.0374 22.4187C84.9179 21.6846 84.4009 21.0774 83.6953 20.8424C82.9896 20.6075 82.2118 20.7835 81.6761 21.2994L83.0634 22.74ZM89.6154 24V26C90.72 26 91.6154 25.1046 91.6154 24H89.6154ZM89.6154 20.976H91.6154C91.6154 19.8714 90.72 18.976 89.6154 18.976V20.976ZM74.0814 17.466H72.0814C72.0814 18.5706 72.9768 19.466 74.0814 19.466V17.466ZM79.4814 17.466V19.466C80.4838 19.466 81.3314 18.7239 81.4638 17.7303L79.4814 17.466ZM82.5234 17.682L82.6913 19.6749C82.6985 19.6743 82.7058 19.6737 82.713 19.673L82.5234 17.682ZM77.6094 18.096L77.4415 16.103L77.434 16.1037L77.6094 18.096ZM80.9914 20.004C80.9914 19.8962 81.0181 19.8006 81.055 19.7275C81.0914 19.6556 81.1301 19.6195 81.1436 19.6086C81.1733 19.5846 81.0771 19.678 80.7414 19.678V23.678C82.8462 23.678 84.9914 22.3517 84.9914 20.004H80.9914ZM80.7414 19.678C80.5551 19.678 80.765 19.633 81.0469 19.8793C81.3483 20.1426 81.4634 20.5051 81.4634 20.796H77.4634C77.4634 21.4829 77.7224 22.2864 78.4154 22.8917C79.0888 23.48 79.9377 23.678 80.7414 23.678V19.678ZM81.4634 20.796V20.778H77.4634V20.796H81.4634ZM81.4634 20.778C81.4634 20.9097 81.4388 21.1255 81.3224 21.3668C81.2035 21.6134 81.0381 21.7843 80.8988 21.8892C80.834 21.9381 80.7795 21.9693 80.7448 21.9872C80.7104 22.005 80.6894 22.0129 80.6881 22.0133C80.6867 22.0139 80.6979 22.0097 80.7259 22.0017C80.7537 21.9938 80.7924 21.9837 80.845 21.9717L79.9537 18.0723C79.6064 18.1517 79.0094 18.3044 78.4914 18.6948C77.8042 19.2127 77.4634 19.9734 77.4634 20.778H81.4634ZM80.8203 21.9772L83.4123 21.4192L82.5705 17.5088L79.9785 18.0668L80.8203 21.9772ZM80.9914 19.464V20.004H84.9914V19.464H80.9914ZM81.0894 23.0613C81.2161 23.84 81.5843 24.6296 82.297 25.2105C83.0018 25.785 83.8522 26 84.6654 26V22C84.5426 22 84.655 21.972 84.8243 22.11C84.903 22.1742 84.9605 22.2489 84.997 22.3167C85.0317 22.3814 85.0379 22.4217 85.0374 22.4187L81.0894 23.0613ZM84.6654 26H89.6154V22H84.6654V26ZM91.6154 24V20.976H87.6154V24H91.6154ZM89.6154 18.976H89.0574V22.976H89.6154V18.976ZM89.0574 18.976C89.2898 18.976 89.8714 19.0483 90.3301 19.5868C90.7301 20.0564 90.7334 20.5396 90.7334 20.616H86.7334C86.7334 20.9264 86.7817 21.5896 87.2852 22.1807C87.8474 22.8407 88.591 22.976 89.0574 22.976V18.976ZM90.7334 20.616V17.196H86.7334V20.616H90.7334ZM90.7334 17.196C90.7334 16.7811 90.7001 16.135 90.4167 15.4375C90.1199 14.7068 89.6015 14.046 88.8267 13.5181C87.3842 12.5354 85.1288 12.064 81.7674 12.064V16.064C84.94 16.064 86.1676 16.5466 86.5746 16.8239C86.6596 16.8818 86.694 16.9211 86.7033 16.9325C86.7087 16.9391 86.7105 16.9422 86.7105 16.9423C86.7106 16.9424 86.7106 16.9423 86.7109 16.943C86.7127 16.9475 86.7334 16.9989 86.7334 17.196H90.7334ZM81.7674 12.064H80.7414V16.064H81.7674V12.064ZM80.7414 12.064C77.5261 12.064 75.3197 12.5361 73.901 13.566C72.2561 14.76 72.0814 16.367 72.0814 17.304H76.0814C76.0814 16.909 76.1226 16.896 76.2508 16.803C76.6051 16.5458 77.7287 16.064 80.7414 16.064V12.064ZM72.0814 17.304V17.466H76.0814V17.304H72.0814ZM74.0814 19.466H79.4814V15.466H74.0814V19.466ZM81.4638 17.7303C81.4782 17.623 81.4659 17.7701 81.4045 17.9304C81.3276 18.1308 81.1947 18.3278 81.0137 18.475C80.8504 18.6079 80.7323 18.6315 80.7665 18.6228C80.8049 18.6131 80.9519 18.584 81.2634 18.584V14.584C80.2577 14.584 79.2538 14.7502 78.4891 15.3725C77.6031 16.0933 77.52 17.0437 77.4989 17.2017L81.4638 17.7303ZM81.2634 18.584H81.3174V14.584H81.2634V18.584ZM81.3174 18.584C81.6105 18.584 81.7848 18.6017 81.874 18.6163C81.9706 18.6321 81.9127 18.6355 81.7827 18.5675C81.6334 18.4893 81.3964 18.3189 81.217 18.0076C81.0404 17.701 81.0094 17.413 81.0094 17.25H85.0094C85.0094 16.925 84.9491 16.4727 84.683 16.0109C84.4143 15.5443 84.0276 15.2277 83.6375 15.0235C82.9495 14.6634 82.118 14.584 81.3174 14.584V18.584ZM81.0094 17.25V17.268H85.0094V17.25H81.0094ZM81.0094 17.268C81.0094 17.0404 81.0754 16.5338 81.5158 16.1067C81.9038 15.7305 82.3044 15.6938 82.3338 15.691L82.713 19.673C83.1204 19.6342 83.7639 19.4985 84.3004 18.9783C84.8894 18.4072 85.0094 17.7116 85.0094 17.268H81.0094ZM82.3555 15.6891L77.4415 16.1031L77.7773 20.0889L82.6913 19.6749L82.3555 15.6891ZM77.434 16.1037C75.8516 16.243 74.443 16.612 73.4065 17.4404C72.2475 18.3667 71.8474 19.6199 71.8474 20.814H75.8474C75.8474 20.653 75.8723 20.5945 75.8731 20.5926C75.8737 20.5912 75.8736 20.5916 75.8729 20.5929C75.8721 20.5942 75.8715 20.5951 75.8715 20.595C75.8716 20.5949 75.8734 20.5926 75.8779 20.588C75.8824 20.5834 75.8906 20.5756 75.9038 20.5651C76.0328 20.462 76.5051 20.201 77.7848 20.0883L77.434 16.1037ZM71.8474 20.814V21.12H75.8474V20.814H71.8474ZM71.8474 21.12C71.8474 22.4482 72.3956 23.8015 73.6084 24.7802C74.785 25.7296 76.399 26.18 78.3114 26.18V22.18C76.9838 22.18 76.3658 21.8654 76.1204 21.6673C75.9112 21.4985 75.8474 21.3218 75.8474 21.12H71.8474ZM78.3114 26.18H78.4554V22.18H78.3114V26.18ZM78.4554 26.18C81.7488 26.18 83.5949 25.0047 84.4507 24.1806L81.6761 21.2994C81.5599 21.4113 80.706 22.18 78.4554 22.18V26.18ZM107.09 19.662H109.09C109.09 18.5574 108.194 17.662 107.09 17.662V19.662ZM101.168 19.662V17.662C100.104 17.662 99.2263 18.4946 99.1704 19.5569L101.168 19.662ZM101.168 18.51L99.1786 18.7194C99.2857 19.7373 100.144 20.51 101.168 20.51V18.51ZM107.09 18.51V20.51C108.194 20.51 109.09 19.6146 109.09 18.51H107.09ZM99.6196 26.27C103.413 26.27 105.899 25.389 107.412 23.8829C108.948 22.3535 109.09 20.5684 109.09 19.716H105.09C105.09 20.1236 105.024 20.6155 104.59 21.0481C104.132 21.504 102.882 22.27 99.6196 22.27V26.27ZM109.09 19.716V19.662H105.09V19.716H109.09ZM107.09 17.662H101.168V21.662H107.09V17.662ZM99.1704 19.5569C99.1733 19.5017 99.1787 19.4707 99.1806 19.4609C99.183 19.4482 99.185 19.4416 99.1861 19.4382C99.1875 19.4342 99.1938 19.4154 99.2157 19.388C99.2275 19.3732 99.2423 19.358 99.2592 19.3445C99.2766 19.3307 99.2896 19.3239 99.2934 19.3222C99.3058 19.3165 99.2359 19.354 99.0256 19.354V23.354C100.505 23.354 101.629 22.7752 102.341 21.8845C102.973 21.0929 103.14 20.2315 103.165 19.7671L99.1704 19.5569ZM99.0256 19.354H98.9536V23.354H99.0256V19.354ZM98.9536 19.354C98.739 19.354 98.6828 19.3169 98.7147 19.3318C98.73 19.339 98.7556 19.3537 98.7844 19.378C98.8128 19.4021 98.8342 19.427 98.8485 19.4472C98.8751 19.4849 98.8622 19.4847 98.8441 19.4065C98.8257 19.3275 98.8116 19.2092 98.8116 19.05H94.8116C94.8116 19.7438 94.9173 20.8139 95.5802 21.7533C96.3351 22.8233 97.5392 23.354 98.9536 23.354V19.354ZM98.8116 19.05V18.996H94.8116V19.05H98.8116ZM98.8116 18.996C98.8116 18.9354 98.8144 18.8841 98.819 18.8417C98.8236 18.7991 98.8294 18.7707 98.8336 18.7543C98.8421 18.7208 98.8388 18.7569 98.7907 18.8184C98.7666 18.8493 98.7374 18.8784 98.7059 18.9024C98.6744 18.9264 98.6509 18.9376 98.6437 18.9406C98.631 18.946 98.7129 18.908 98.9536 18.908V14.908C97.6195 14.908 96.4247 15.3491 95.638 16.3566C94.926 17.2683 94.8116 18.321 94.8116 18.996H98.8116ZM98.9536 18.908H99.0256V14.908H98.9536V18.908ZM99.0256 18.908C99.1442 18.908 99.2249 18.9181 99.2743 18.9275C99.2989 18.9322 99.3161 18.9368 99.3268 18.94C99.3321 18.9416 99.336 18.943 99.3384 18.9439C99.3409 18.9448 99.3421 18.9453 99.3421 18.9453C99.3421 18.9453 99.3411 18.9449 99.3392 18.9439C99.3372 18.9429 99.3345 18.9414 99.331 18.9394C99.324 18.9354 99.315 18.9296 99.3048 18.9218C99.2835 18.9058 99.2627 18.886 99.2443 18.864C99.2083 18.821 99.1938 18.7849 99.1889 18.7708C99.1845 18.7581 99.1812 18.7446 99.1786 18.7194L103.157 18.3006C103.119 17.94 102.973 17.0873 102.312 16.2975C101.582 15.4238 100.459 14.908 99.0256 14.908V18.908ZM101.168 20.51H107.09V16.51H101.168V20.51ZM109.09 18.51V18.456H105.09V18.51H109.09ZM109.09 18.456C109.09 17.4938 108.876 15.7431 107.305 14.2806C105.777 12.8596 103.323 12.046 99.6376 12.046V16.046C102.828 16.046 104.1 16.7624 104.58 17.2089C105.015 17.6139 105.09 18.0682 105.09 18.456H109.09ZM99.6376 12.046H98.4316V16.046H99.6376V12.046ZM98.4316 12.046C94.7153 12.046 92.2024 12.8584 90.6511 14.3924C89.0668 15.959 88.9076 17.8626 88.9076 18.96H92.9076C92.9076 18.2214 93.0274 17.668 93.4636 17.2366C93.9328 16.7726 95.1819 16.046 98.4316 16.046V12.046ZM88.9076 18.96V19.248H92.9076V18.96H88.9076ZM88.9076 19.248C88.9076 20.3628 89.0711 22.2836 90.6475 23.8705C92.201 25.4344 94.7219 26.27 98.4496 26.27V22.27C95.2113 22.27 93.9612 21.5306 93.4852 21.0515C93.0321 20.5954 92.9076 20.0052 92.9076 19.248H88.9076ZM98.4496 26.27H99.6196V22.27H98.4496V26.27ZM114.684 24V26C115.788 26 116.684 25.1046 116.684 24H114.684ZM114.684 19.752L116.326 18.6107C115.827 17.8928 114.92 17.5821 114.086 17.8435C113.252 18.1049 112.684 18.8778 112.684 19.752H114.684ZM117.636 24L115.993 25.1413C116.367 25.6792 116.981 26 117.636 26V24ZM124.098 24V26C124.843 26 125.527 25.5853 125.872 24.924C126.216 24.2628 126.164 23.4648 125.737 22.8538L124.098 24ZM120.246 18.492L118.669 17.2618C118.129 17.9543 118.103 18.9184 118.607 19.6382L120.246 18.492ZM123.504 14.316L125.081 15.5462C125.551 14.9435 125.636 14.1256 125.301 13.4386C124.966 12.7517 124.268 12.316 123.504 12.316V14.316ZM117.348 14.316V12.316C116.709 12.316 116.108 12.6214 115.732 13.1378L117.348 14.316ZM114.684 17.97H112.684C112.684 18.8358 113.241 19.6034 114.064 19.8716C114.887 20.1398 115.79 19.8479 116.3 19.1482L114.684 17.97ZM114.684 10.608H116.684C116.684 9.50343 115.788 8.608 114.684 8.608V10.608ZM108.87 10.608V8.608C107.765 8.608 106.87 9.50343 106.87 10.608H108.87ZM108.87 24H106.87C106.87 25.1046 107.765 26 108.87 26V24ZM116.684 24V19.752H112.684V24H116.684ZM113.041 20.8933L115.993 25.1413L119.278 22.8587L116.326 18.6107L113.041 20.8933ZM117.636 26H124.098V22H117.636V26ZM125.737 22.8538L121.885 17.3458L118.607 19.6382L122.459 25.1462L125.737 22.8538ZM121.823 19.7222L125.081 15.5462L121.927 13.0858L118.669 17.2618L121.823 19.7222ZM123.504 12.316H117.348V16.316H123.504V12.316ZM115.732 13.1378L113.068 16.7918L116.3 19.1482L118.964 15.4942L115.732 13.1378ZM116.684 17.97V10.608H112.684V17.97H116.684ZM114.684 8.608H108.87V12.608H114.684V8.608ZM106.87 10.608V24H110.87V10.608H106.87ZM108.87 26H114.684V22H108.87V26Z" fill="black" mask="url(#path-5-outside-1_8_36)"/>
</g>
<defs>
<filter id="filter0_d_8_36" x="0.464355" y="18.1335" width="18.4023" height="18.4023" filterUnits="userSpaceOnUse" color-interpolation-filters="sRGB">
<feFlood flood-opacity="0" result="BackgroundImageFix"/>
<feColorMatrix in="SourceAlpha" type="matrix" values="0 0 0 0 0 0 0 0 0 0 0 0 0 0 0 0 0 0 127 0" result="hardAlpha"/>
<feOffset dx="1" dy="1"/>
<feComposite in2="hardAlpha" operator="out"/>
<feColorMatrix type="matrix" values="0 0 0 0 0 0 0 0 0 0 0 0 0 0 0 0 0 0 1 0"/>
<feBlend mode="normal" in2="BackgroundImageFix" result="effect1_dropShadow_8_36"/>
<feBlend mode="normal" in="SourceGraphic" in2="effect1_dropShadow_8_36" result="shape"/>
</filter>
<filter id="filter1_d_8_36" x="0.4375" y="0.410645" width="18.4292" height="18.4291" filterUnits="userSpaceOnUse" color-interpolation-filters="sRGB">
<feFlood flood-opacity="0" result="BackgroundImageFix"/>
<feColorMatrix in="SourceAlpha" type="matrix" values="0 0 0 0 0 0 0 0 0 0 0 0 0 0 0 0 0 0 127 0" result="hardAlpha"/>
<feOffset dx="1" dy="1"/>
<feComposite in2="hardAlpha" operator="out"/>
<feColorMatrix type="matrix" values="0 0 0 0 0 0 0 0 0 0 0 0 0 0 0 0 0 0 1 0"/>
<feBlend mode="normal" in2="BackgroundImageFix" result="effect1_dropShadow_8_36"/>
<feBlend mode="normal" in="SourceGraphic" in2="effect1_dropShadow_8_36" result="shape"/>
</filter>
<filter id="filter2_d_8_36" x="18.1604" y="0.410645" width="18.4023" height="18.4291" filterUnits="userSpaceOnUse" color-interpolation-filters="sRGB">
<feFlood flood-opacity="0" result="BackgroundImageFix"/>
<feColorMatrix in="SourceAlpha" type="matrix" values="0 0 0 0 0 0 0 0 0 0 0 0 0 0 0 0 0 0 127 0" result="hardAlpha"/>
<feOffset dx="1" dy="1"/>
<feComposite in2="hardAlpha" operator="out"/>
<feColorMatrix type="matrix" values="0 0 0 0 0 0 0 0 0 0 0 0 0 0 0 0 0 0 1 0"/>
<feBlend mode="normal" in2="BackgroundImageFix" result="effect1_dropShadow_8_36"/>
<feBlend mode="normal" in="SourceGraphic" in2="effect1_dropShadow_8_36" result="shape"/>
</filter>
<filter id="filter3_d_8_36" x="18.1604" y="18.1335" width="18.4292" height="18.4023" filterUnits="userSpaceOnUse" color-interpolation-filters="sRGB">
<feFlood flood-opacity="0" result="BackgroundImageFix"/>
<feColorMatrix in="SourceAlpha" type="matrix" values="0 0 0 0 0 0 0 0 0 0 0 0 0 0 0 0 0 0 127 0" result="hardAlpha"/>
<feOffset dx="1" dy="1"/>
<feComposite in2="hardAlpha" operator="out"/>
<feColorMatrix type="matrix" values="0 0 0 0 0 0 0 0 0 0 0 0 0 0 0 0 0 0 1 0"/>
<feBlend mode="normal" in2="BackgroundImageFix" result="effect1_dropShadow_8_36"/>
<feBlend mode="normal" in="SourceGraphic" in2="effect1_dropShadow_8_36" result="shape"/>
</filter>
<filter id="filter4_dd_8_36" x="45.0901" y="10.374" width="81.0076" height="15.896" filterUnits="userSpaceOnUse" color-interpolation-filters="sRGB">
<feFlood flood-opacity="0" result="BackgroundImageFix"/>
<feColorMatrix in="SourceAlpha" type="matrix" values="0 0 0 0 0 0 0 0 0 0 0 0 0 0 0 0 0 0 127 0" result="hardAlpha"/>
<feOffset dx="1" dy="1"/>
<feComposite in2="hardAlpha" operator="out"/>
<feColorMatrix type="matrix" values="0 0 0 0 0 0 0 0 0 0 0 0 0 0 0 0 0 0 1 0"/>
<feBlend mode="normal" in2="BackgroundImageFix" result="effect1_dropShadow_8_36"/>
<feColorMatrix in="SourceAlpha" type="matrix" values="0 0 0 0 0 0 0 0 0 0 0 0 0 0 0 0 0 0 127 0" result="hardAlpha"/>
<feOffset dx="2" dy="2"/>
<feComposite in2="hardAlpha" operator="out"/>
<feColorMatrix type="matrix" values="0 0 0 0 0 0 0 0 0 0 0 0 0 0 0 0 0 0 1 0"/>
<feBlend mode="normal" in2="effect1_dropShadow_8_36" result="effect2_dropShadow_8_36"/>
<feBlend mode="normal" in="SourceGraphic" in2="effect2_dropShadow_8_36" result="shape"/>
</filter>
</defs>
</svg>
